HIERARCHY
ROOT Hips
{
	OFFSET 0.000000 0.000000 0.000000 
	CHANNELS 6 Xposition Yposition Zposition Zrotation Yrotation Xrotation
	JOINT LeftUpLeg
	{
		OFFSET 1.363060 -1.794630 0.839290 
		CHANNELS 3 Zrotation Yrotation Xrotation
		JOINT LeftLeg
		{
			OFFSET 2.448110 -6.726130 0.000000 
			CHANNELS 3 Zrotation Yrotation Xrotation
			JOINT LeftFoot
			{
				OFFSET 2.562200 -7.039590 0.000000 
				CHANNELS 3 Zrotation Yrotation Xrotation
				JOINT LeftToeBase
				{
					OFFSET 0.157640 -0.433110 2.322550 
					CHANNELS 3 Zrotation Yrotation Xrotation
					End Site
					{
						OFFSET 0.000000 0.000000 0.000000 
					}
				}
			}
		}
	}
	JOINT RightUpLeg
	{
		OFFSET -1.305520 -1.794630 0.839290 
		CHANNELS 3 Zrotation Yrotation Xrotation
		JOINT RightLeg
		{
			OFFSET -2.542530 -6.985550 0.000000 
			CHANNELS 3 Zrotation Yrotation Xrotation
			JOINT RightFoot
			{
				OFFSET -2.568260 -7.056230 0.000000 
				CHANNELS 3 Zrotation Yrotation Xrotation
				JOINT RightToeBase
				{
					OFFSET -0.164730 -0.452590 2.363150 
					CHANNELS 3 Zrotation Yrotation Xrotation
					End Site
					{
						OFFSET 0.000000 0.000000 0.000000 
					}
				}
			}
		}
	}
	JOINT Spine
	{
		OFFSET 0.028270 2.035590 -0.193380 
		CHANNELS 3 Zrotation Yrotation Xrotation
		JOINT Spine1
		{
			OFFSET 0.056720 2.048850 -0.042750 
			CHANNELS 3 Zrotation Yrotation Xrotation
			JOINT Neck1
			{
				OFFSET -0.054170 1.746240 0.172020 
				CHANNELS 3 Zrotation Yrotation Xrotation
				JOINT Head
				{
					OFFSET 0.104070 1.761360 -0.123970 
					CHANNELS 3 Zrotation Yrotation Xrotation
					End Site
					{
						OFFSET 0.000000 0.000000 0.000000 
					}
				}
			}
			JOINT LeftArm
			{
				OFFSET 3.362410 1.200890 -0.311210 
				CHANNELS 3 Zrotation Yrotation Xrotation
				JOINT LeftForeArm
				{
					OFFSET 4.983000 -0.000000 -0.000000 
					CHANNELS 3 Zrotation Yrotation Xrotation
					JOINT LeftHand
					{
						OFFSET 3.483560 -0.000000 -0.000000 
						CHANNELS 3 Zrotation Yrotation Xrotation
						JOINT LeftHandIndex1
						{
							OFFSET 0.715260 -0.000000 -0.000000 
							CHANNELS 3 Zrotation Yrotation Xrotation
							End Site
							{
								OFFSET 0.000000 0.000000 0.000000 
							}
						}
					}
				}
			}
			JOINT RightArm
			{
				OFFSET -3.136600 1.374050 -0.404650 
				CHANNELS 3 Zrotation Yrotation Xrotation
				JOINT RightForeArm
				{
					OFFSET -5.241900 -0.000000 -0.000000 
					CHANNELS 3 Zrotation Yrotation Xrotation
					JOINT RightHand
					{
						OFFSET -3.444170 -0.000000 -0.000000 
						CHANNELS 3 Zrotation Yrotation Xrotation
						JOINT RightHandIndex1
						{
							OFFSET -0.622530 -0.000000 -0.000000 
							CHANNELS 3 Zrotation Yrotation Xrotation
							End Site
							{
								OFFSET 0.000000 0.000000 0.000000 
							}
						}
					}
				}
			}
		}
	}
}
MOTION
Frames: 9
Frame Time: 0.041667
-0.637410 17.639380 -0.089038 1.264630 0.037325 6.588096 -22.747585 -9.300684 -4.158458 -0.162589 2.669580 11.796172 -1.845927 13.187909 -11.541843 0.850500 -5.881700 -16.441700 29.611685 8.103495 -5.725654 -1.731813 -4.818802 18.300941 1.071313 -14.349038 -16.296815 -0.294500 3.489600 -9.645000 0.860679 3.166676 -1.541762 -1.783183 1.738512 -0.341410 3.816139 -5.281332 12.155834 1.558800 -2.631700 5.116300 -71.914559 8.668279 49.408541 131.833223 -51.190314 -95.326064 1.037971 1.178448 -3.681603 -7.125000 0.000000 0.000000 75.568827 -4.305661 38.027277 -131.883473 48.489101 -94.303263 0.351255 -0.416134 12.817030 7.125000 0.000000 0.000000 
-0.641867 17.637636 -0.085259 1.238862 0.061260 6.584247 -22.701368 -9.239178 -4.206581 -0.153920 2.691678 11.851503 -1.858399 13.187989 -11.345641 0.911500 -6.083700 -17.027500 29.663288 8.073731 -5.720981 -1.732268 -4.822607 18.314817 1.074209 -14.372416 -16.316649 -0.307500 3.565100 -9.856300 0.845876 3.167906 -1.560005 -1.840862 1.739414 -0.370800 3.836772 -5.306514 12.129066 1.560900 -2.641300 5.103100 -71.840098 8.675107 49.391397 131.946607 -51.138557 -95.416880 1.020480 1.194663 -3.753478 -7.125000 0.000000 0.000000 75.654790 -4.324006 38.004226 -131.883875 48.487573 -94.302360 0.350399 -0.416032 12.846934 7.125000 0.000000 0.000000 
-0.646324 17.636570 -0.081481 1.211524 0.060694 6.585001 -22.652155 -9.219704 -4.256617 -0.146202 2.720505 11.928461 -1.847177 13.157699 -11.418832 0.942400 -6.183100 -17.316500 29.716827 8.064093 -5.701973 -1.730056 -4.818286 18.305491 1.087705 -14.434215 -16.291705 -0.326100 3.670500 -10.151400 0.827430 3.168699 -1.579413 -1.904912 1.739500 -0.393941 3.850746 -5.336751 12.183612 1.548500 -2.650600 5.131300 -71.780145 8.660099 49.346263 131.997690 -51.113491 -95.454653 1.015740 1.206310 -3.810939 -7.125000 0.000000 0.000000 75.765706 -4.329803 37.995609 -131.903896 48.477550 -94.318675 0.349894 -0.416420 12.827922 7.125000 0.000000 0.000000 
-0.650684 17.635214 -0.078090 1.133940 0.050272 6.548186 -22.552176 -9.183221 -4.245364 -0.142554 2.734102 11.968595 -1.835359 13.144798 -11.563961 0.954900 -6.222800 -17.432200 29.825609 8.075999 -5.645681 -1.730888 -4.824506 18.331742 1.085018 -14.441189 -16.351713 -0.304100 3.545300 -9.800900 0.833400 3.184404 -1.574562 -1.944522 1.747639 -0.391233 3.867575 -5.360631 12.169738 1.551700 -2.660600 5.125600 -71.797266 8.607772 49.322506 132.020656 -51.106753 -95.466325 1.033708 1.206257 -3.844955 -7.125000 0.000000 0.000000 75.782850 -4.290915 37.969040 -131.926914 48.468121 -94.339274 0.350217 -0.416967 12.770824 7.125000 0.000000 0.000000 
-0.655528 17.634051 -0.074117 1.108855 0.013872 6.532077 -22.506620 -9.143314 -4.214507 -0.143817 2.725701 11.948692 -1.826935 13.098976 -11.557285 0.910800 -6.081200 -17.020300 29.877427 8.134219 -5.610390 -1.735685 -4.839737 18.380398 1.070035 -14.391689 -16.430324 -0.276300 3.381100 -9.341600 0.848620 3.198839 -1.566495 -1.913916 1.754468 -0.371839 3.867709 -5.351937 12.134702 1.553600 -2.656800 5.107200 -71.858308 8.570783 49.277324 132.018442 -51.110040 -95.463476 1.037956 1.204145 -3.875315 -7.125000 0.000000 0.000000 75.750117 -4.256980 37.994813 -131.968030 48.450925 -94.376315 0.350018 -0.417819 12.721486 7.125000 0.000000 0.000000 
-0.658822 17.632888 -0.068789 1.192234 -0.025168 6.511237 -22.598954 -9.127589 -4.113734 -0.151677 2.692781 11.867968 -1.848625 13.173759 -11.467571 0.896700 -6.035300 -16.886900 29.793281 8.104116 -5.631677 -1.748515 -4.868933 18.464757 1.050864 -14.302847 -16.459726 -0.284800 3.432200 -9.484500 0.846969 3.206686 -1.557691 -1.859844 1.757614 -0.343718 3.886875 -5.356666 12.118721 1.566000 -2.659500 5.103200 -71.935793 8.564559 49.236910 132.006770 -51.119393 -95.451550 1.040311 1.206091 -3.866095 -7.125000 0.000000 0.000000 75.723789 -4.225145 38.000986 -131.982883 48.446006 -94.388998 0.350217 -0.417361 12.719500 7.125000 0.000000 0.000000 
-0.660178 17.631435 -0.060844 1.296761 -0.058926 6.460024 -22.719151 -9.107384 -3.936345 -0.163947 2.647417 11.767026 -1.840018 13.175026 -11.620748 0.887600 -6.005300 -16.799800 29.667209 8.039002 -5.633352 -1.763643 -4.901527 18.562368 1.023151 -14.184654 -16.526442 -0.301200 3.528600 -9.754100 0.840869 3.205720 -1.542644 -1.825338 1.756158 -0.310897 3.863021 -5.360488 12.098323 1.553600 -2.662100 5.091500 -72.067811 8.565337 49.153466 131.980544 -51.137383 -95.427743 1.050465 1.199278 -3.799212 -7.125000 0.000000 0.000000 75.701838 -4.209403 37.989323 -131.979614 48.448975 -94.385578 0.349960 -0.416694 12.815218 7.125000 0.000000 0.000000 
-0.662019 17.631144 -0.056678 1.352099 -0.053215 6.404934 -22.779376 -9.063957 -3.796555 -0.176383 2.599042 11.650073 -1.851499 13.235520 -11.653268 0.908500 -6.073900 -16.998900 29.607540 8.004150 -5.639256 -1.777708 -4.935383 18.663035 1.008882 -14.132995 -16.578108 -0.290200 3.464500 -9.574800 0.836692 3.175155 -1.538359 -1.828129 1.740113 -0.318092 3.834188 -5.332557 12.093920 1.537900 -2.648800 5.078500 -72.166431 8.554874 49.060947 131.983139 -51.140292 -95.428134 1.051877 1.198732 -3.775707 -7.125000 0.000000 0.000000 75.688886 -4.151551 38.043852 -131.975627 48.451551 -94.381576 0.349853 -0.416885 12.795919 7.125000 0.000000 0.000000 
-0.664829 17.630660 -0.053384 1.384306 -0.025872 6.376710 -22.806302 -9.057754 -3.731283 -0.179537 2.580758 11.604733 -1.863462 13.249847 -11.522962 0.899300 -6.043900 -16.911700 29.582382 7.943200 -5.641352 -1.784915 -4.951651 18.713645 1.004951 -14.114689 -16.583172 -0.290500 3.466200 -9.579500 0.833744 3.153028 -1.543375 -1.826686 1.728548 -0.326044 3.796687 -5.333434 12.102723 1.513700 -2.649000 5.070900 -72.210964 8.565530 49.028436 131.963932 -51.148923 -95.415454 1.046332 1.195465 -3.745712 -7.125000 0.000000 0.000000 75.723353 -4.117608 38.071889 -131.966052 48.456798 -94.371849 0.349988 -0.416843 12.751744 7.125000 0.000000 0.000000 
